<?xml version="1.0" encoding="UTF-8" ?>
<!DOCTYPE svg PUBLIC "-//W3C//DTD SVG 1.1//EN" "http://www.w3.org/Graphics/SVG/1.1/DTD/svg11.dtd">
<svg width="800" height="800" viewBox="0 0 800 800" version="1.1" xmlns="http://www.w3.org/2000/svg">
	<g id="#000000ff">
		<path fill="#6b8e7f" opacity="1.00" d=" M 98.71 167.68 C 105.80 162.84 113.54 158.86 120.49 153.77 C 102.63 193.99 82.51 233.38 63.73 273.25 C 173.83 340.59 284.35 407.25 394.69 474.21 C 394.72 482.16 394.72 490.11 394.65 498.05 C 277.41 425.11 160.07 352.32 42.95 279.19 C 62.42 242.48 79.57 204.56 98.71 167.68 Z" />
		<path fill="#6b8e7f" opacity="1.00" d=" M 679.66 153.39 C 686.70 158.86 695.07 162.47 702.08 167.89 C 721.45 204.60 738.19 242.63 757.87 279.18 C 640.57 352.23 523.30 425.37 405.78 498.06 C 406.34 490.10 404.42 481.30 406.87 473.86 C 516.83 406.78 627.26 340.43 737.14 273.23 C 717.68 233.43 698.56 193.46 679.66 153.39 Z" />
		<path fill="#6b8e7f" opacity="1.00" d=" M 207.99 166.17 C 234.25 181.80 264.02 189.73 292.31 200.75 C 311.78 208.90 330.86 218.06 348.85 229.13 C 373.32 244.64 395.40 267.76 400.45 297.28 C 403.41 277.19 415.59 259.75 429.95 245.94 C 453.73 224.70 483.21 211.40 512.33 199.21 C 539.52 189.18 567.57 180.79 592.83 166.29 C 606.58 195.24 622.20 223.20 635.97 252.13 C 616.75 271.99 589.56 281.19 563.62 288.68 C 534.00 298.90 504.64 310.62 477.70 326.76 C 457.19 340.85 437.28 356.05 419.72 373.73 C 412.33 382.05 404.54 390.55 400.51 401.10 C 393.74 386.61 382.60 374.79 371.02 364.03 C 347.59 343.75 323.00 323.98 294.35 311.57 C 275.12 302.48 255.26 294.73 235.10 287.96 C 211.83 281.69 188.52 272.80 169.81 257.22 C 168.03 255.12 163.71 253.13 165.76 249.87 C 179.67 221.87 194.35 194.30 207.99 166.17 Z" />
		<path fill="#6b8e7f" opacity="1.00" d=" M 155.43 182.51 C 166.29 179.06 176.96 174.97 187.96 171.97 C 173.86 201.14 158.90 229.90 144.69 259.01 C 160.18 277.74 183.45 287.77 205.61 296.39 C 233.11 304.68 260.24 314.42 286.22 326.71 C 310.26 337.38 330.40 354.78 348.85 373.17 C 363.78 387.80 378.08 403.01 391.63 418.88 C 383.37 425.35 375.82 432.81 367.08 438.60 C 279.11 385.63 191.32 332.33 103.17 279.69 C 120.27 247.13 138.50 215.14 155.43 182.51 Z" />
		<path fill="#6b8e7f" opacity="1.00" d=" M 612.91 171.98 C 623.82 175.10 634.52 178.99 645.27 182.65 C 662.30 215.25 680.61 247.17 697.58 279.83 C 630.89 319.15 564.93 359.77 498.43 399.44 C 477.11 412.86 455.07 425.09 433.85 438.65 C 424.59 433.09 416.67 425.47 408.04 418.98 C 414.59 411.22 422.05 404.32 428.50 396.48 C 449.72 375.67 469.80 353.23 495.04 337.13 C 521.73 321.55 550.87 310.82 580.11 301.08 C 600.93 295.03 621.34 286.64 639.32 274.37 C 645.29 269.74 651.82 265.42 656.07 259.04 C 641.88 229.93 626.77 201.23 612.91 171.98 Z" />
		<path fill="Silver" opacity="1.00" d=" M 239.32 454.35 C 250.89 448.15 261.96 440.98 273.69 435.11 C 311.04 457.80 348.07 481.09 385.74 503.20 C 309.98 549.75 233.67 595.45 157.72 641.70 C 154.97 643.35 152.06 644.83 149.83 647.20 C 146.75 642.44 143.88 637.53 140.58 632.92 C 149.00 615.55 157.04 598.01 165.77 580.81 C 198.14 562.92 230.43 544.48 259.68 521.69 C 269.38 513.42 279.59 505.32 286.61 494.50 C 289.65 489.99 292.14 484.70 291.62 479.13 C 288.93 468.13 276.02 458.83 265.06 465.05 C 245.79 476.01 227.10 488.03 208.02 499.34 C 213.52 487.67 220.17 476.57 225.96 465.04 C 228.33 459.33 234.47 457.35 239.32 454.35 Z" />
		<path fill="Silver" opacity="1.00" d=" M 527.27 435.11 C 541.17 442.66 554.71 450.88 568.65 458.36 C 572.80 460.24 574.39 464.72 576.58 468.37 C 581.73 478.77 587.70 488.75 592.68 499.23 C 577.17 490.16 561.98 480.56 546.48 471.46 C 540.59 468.09 535.01 463.43 528.00 462.81 C 516.42 463.71 505.03 476.78 510.67 488.36 C 519.11 505.40 535.05 516.87 549.67 528.28 C 576.65 548.12 605.88 564.67 635.09 580.92 C 643.58 598.16 651.94 615.48 660.10 632.88 C 656.82 637.49 654.04 642.43 651.03 647.22 C 648.13 644.57 644.62 642.78 641.33 640.70 C 565.98 594.75 490.25 549.42 415.05 503.26 C 452.72 481.02 489.73 457.60 527.27 435.11 Z" />
		<path fill="Silver" opacity="1.00" d=" M 268.01 476.09 C 274.78 472.08 282.69 477.66 286.89 482.65 C 264.38 496.73 241.69 510.59 219.12 524.58 C 216.16 519.34 212.82 514.33 209.92 509.06 C 229.35 498.19 248.59 486.99 268.01 476.09 Z" />
		<path fill="Silver" opacity="1.00" d=" M 513.29 482.22 C 518.67 478.42 525.04 472.17 532.10 475.86 C 551.77 486.82 571.27 498.10 590.94 509.08 C 587.99 514.21 584.85 519.23 581.59 524.17 C 558.59 510.66 535.88 496.46 513.29 482.22 Z" />
	</g>
</svg>